#!OML:ASF F:\VICON\USERDATA\INSTALL\Justin_Nancy\Justin_Nancy.ASF
:FULLY-SPECIFIED
:DEGREES
17
root 0.332287 17.0408 -18.772 5.88885 -4.06793 5.62018
lowerback 13.0638 -1.08546 -5.15284
upperback 0.549899 -2.09277 1.63542
thorax -6.50774 -0.842815 5.03917
lowerneck -20.4475 -1.85933 -9.92431
upperneck 9.93622 -0.765151 6.55539
head 6.39634 -0.191748 3.65058
rclavicle 5.56597e-015 1.43125e-014
rhumerus -57.8144 3.3771 -87.3421
rradius 106.503
rwrist -12.3787
rhand -18.489 33.2012
rfingers 7.12502
rthumb 7.7984 3.36507
lclavicle 5.56597e-015 1.43125e-014
lhumerus -34.1542 -14.5826 92.6859
lradius 111.239
lwrist 18.4469
lhand -15.6865 4.78975
lfingers 7.12502
lthumb 10.5026 34.5074
rfemur -38.0788 -2.50421 23.4849
rtibia 43.2827
rfoot -5.63896 -3.89312
rtoes 6.913
lfemur 4.39849 0.776123 -25.2449
ltibia 71.592
lfoot 31.6171 -7.72289
ltoes 12.2065
18
root 0.307796 16.937 -18.2181 5.48215 -4.48501 4.79084
lowerback 13.6669 -0.888855 -4.51415
upperback 0.63365 -1.74932 1.80516
thorax -6.81094 -0.683024 4.81699
lowerneck -20.0296 -1.83929 -9.79664
upperneck 9.62327 -0.792989 6.4658
head 6.22975 -0.209662 3.59074
rclavicle 2.127e-014 -1.59028e-015
rhumerus -55.7055 3.78344 -87.7638
rradius 105.642
rwrist -12.4369
rhand -18.1784 32.6491
rfingers 7.12502
rthumb 8.09817 2.82426
lclavicle 2.127e-014 -1.59028e-015
lhumerus -35.1058 -13.5819 93.0928
lradius 108.867
lwrist 18.8686
lhand -15.7073 4.65974
lfingers 7.12502
lthumb 10.4825 34.3784
rfemur -37.1494 -0.631166 23.9944
rtibia 46.348
rfoot -8.14184 -6.10321
rtoes 4.33681
lfemur 2.16304 1.7499 -23.557
ltibia 75.8003
lfoot 29.4593 -8.14571
ltoes 12.5051
19
root 0.282455 16.8514 -17.6529 5.2764 -4.62056 3.7994
lowerback 13.9073 -0.786818 -3.63773
upperback 0.852345 -1.46669 2.04682
thorax -6.75813 -0.574393 4.52593
lowerneck -20.3514 -1.89646 -9.69384
upperneck 9.66189 -0.854223 6.37912
head 6.29791 -0.238651 3.54089
rclavicle -9.14409e-015 3.18055e-015
rhumerus -53.1651 4.3766 -88.2039
rradius 104.87
rwrist -12.4314
rhand -18.7076 32.3308
rfingers 7.12502
rthumb 7.58743 2.48689
lclavicle -9.14409e-015 3.18055e-015
lhumerus -35.4321 -12.6517 93.3893
lradius 106.337
lwrist 19.8447
lhand -16.134 5.59166
lfingers 7.12502
lthumb 10.0709 35.3307
rfemur -35.7425 0.425249 24.9464
rtibia 48.6682
rfoot -10.6187 -7.9075
rtoes 2.33978
lfemur -0.389565 2.46369 -21.6565
ltibia 79.7941
lfoot 27.4147 -8.93182
ltoes 12.2856
20
root 0.251512 16.787 -17.0922 5.50543 -4.26126 2.17873
lowerback 13.9901 -0.853173 -2.10151
upperback 0.898451 -1.28143 2.51674
thorax -6.79657 -0.523315 4.1189
lowerneck -20.7304 -2.00661 -9.60344
upperneck 9.66841 -0.979585 6.30741
head 6.3701 -0.296654 3.49045
rclavicle -1.74931e-014 2.3059e-014
rhumerus -50.5973 5.11437 -88.5952
rradius 104.173
rwrist -12.3296
rhand -19.3749 32.3973
rfingers 7.12502
rthumb 6.9433 2.53121
lclavicle -1.74931e-014 2.3059e-014
lhumerus -35.975 -11.7205 93.7612
lradius 103.973
lwrist 21.0126
lhand -16.5719 6.43109
lfingers 7.12502
lthumb 9.64844 36.1901
rfemur -34.2827 0.881792 26.7538
rtibia 50.2638
rfoot -13.062 -9.28808
rtoes 0.715245
lfemur -3.76769 2.83553 -18.9098
ltibia 83.7518
lfoot 25.7363 -10.1274
ltoes 12.6494
21
root 0.227842 16.7153 -16.5487 5.84261 -3.59497 0.734085
lowerback 14.0115 -1.12125 -0.747381
upperback 0.799738 -1.38363 3.0428
thorax -6.92492 -0.603031 3.93366
lowerneck -20.5017 -1.95982 -9.70054
upperneck 9.39556 -0.907341 6.32126
head 6.24 -0.263943 3.5144
rclavicle -1.63003e-014 1.27222e-014
rhumerus -48.2916 6.29837 -88.9716
rradius 103.901
rwrist -12.2464
rhand -19.7636 32.4412
rfingers 7.12502
rthumb 6.56801 2.56306
lclavicle -1.63003e-014 1.27222e-014
lhumerus -36.9462 -10.1685 94.1076
lradius 101.919
lwrist 21.5781
lhand -16.8058 6.97285
lfingers 7.12502
lthumb 9.42275 36.7422
rfemur -32.8148 0.868666 28.4156
rtibia 51.2908
rfoot -15.0048 -10.7472
rtoes -1.7526
lfemur -7.66964 2.99381 -16.4539
ltibia 87.5847
lfoot 23.668 -11.0283
ltoes 12.6577
22
root 0.212714 16.6572 -16.0078 6.19208 -2.99011 -0.27965
lowerback 13.8338 -1.35389 0.22833
upperback 0.807275 -1.51116 3.46597
thorax -6.82309 -0.69063 3.84904
lowerneck -20.7213 -1.90631 -9.61206
upperneck 9.4018 -0.801208 6.06724
head 6.26612 -0.228321 3.42894
rclavicle -4.77083e-015 -3.97569e-015
rhumerus -45.8696 7.55486 -89.2003
rradius 104.053
rwrist -12.3275
rhand -19.6704 32.1707
rfingers 7.12502
rthumb 6.65804 2.29539
lclavicle -4.77083e-015 -3.97569e-015
lhumerus -37.6932 -8.67599 94.4187
lradius 99.9183
lwrist 21.1942
lhand -17.8689 7.75772
lfingers 7.12502
lthumb 8.39687 37.5708
rfemur -31.1377 0.707052 29.5829
rtibia 51.6418
rfoot -16.5567 -12.1339
rtoes -3.63594
lfemur -11.6589 3.20196 -14.7183
ltibia 91.0167
lfoot 20.6642 -11.2023
ltoes 8.68211
23
root 0.196372 16.6184 -15.4724 6.60908 -2.65416 -0.57667
lowerback 13.674 -1.33396 0.438324
upperback 0.789744 -1.4426 3.64597
thorax -6.75783 -0.661597 3.90346
lowerneck -21.3531 -1.9918 -9.30428
upperneck 9.64796 -0.887709 5.67175
head 6.44923 -0.28832 3.24416
rclavicle 1.43125e-014 9.54166e-015
rhumerus -43.1956 8.49676 -89.2983
rradius 104.359
rwrist -12.3177
rhand -19.3191 32.2334
rfingers 7.12502
rthumb 6.99711 2.36903
lclavicle 1.43125e-014 9.54166e-015
lhumerus -38.5445 -7.50035 94.7273
lradius 98.2422
lwrist 19.8908
lhand -18.4297 7.89501
lfingers 7.12502
lthumb 7.85562 37.7291
rfemur -29.4385 0.50069 29.9879
rtibia 51.6135
rfoot -18.0553 -13.2128
rtoes -4.95182
lfemur -15.9659 3.54966 -14.009
ltibia 94.0054
lfoot 18.1381 -10.0575
ltoes 5.48613
24
root 0.164824 16.6455 -14.9115 6.66064 -1.33303 -0.474631
lowerback 13.8157 -1.54062 0.511193
upperback 0.774075 -1.6958 3.69808
thorax -6.83847 -0.784739 3.9728
lowerneck -21.6744 -2.20079 -9.13992
upperneck 9.72182 -1.16173 5.51007
head 6.54324 -0.425538 3.13415
rclavicle 1.72943e-014 7.95139e-016
rhumerus -40.8212 9.08782 -89.3779
rradius 105.169
rwrist -12.2821
rhand -18.8434 32.4716
rfingers 7.12502
rthumb 7.45631 2.62299
lclavicle 1.72943e-014 7.95139e-016
lhumerus -39.5805 -6.87216 94.993
lradius 97.0976
lwrist 18.6004
lhand -18.1742 7.41094
lfingers 7.12502
lthumb 8.10223 37.2356
rfemur -26.8946 -0.631403 30.065
rtibia 51.0437
rfoot -19.6324 -14.1867
rtoes -6.93376
lfemur -20.0258 2.90298 -13.7322
ltibia 96.1097
lfoot 16.7979 -8.92246
ltoes 4.73972
25
root 0.151339 16.6515 -14.3444 6.65847 -1.01786 -0.518751
lowerback 13.8551 -1.43454 0.63704
upperback 0.78841 -1.5298 3.76105
thorax -6.8574 -0.706288 3.93794
lowerneck -21.9161 -2.41932 -9.04899
upperneck 9.81086 -1.42074 5.25222
head 6.62715 -0.568461 3.00449
rclavicle -1.66979e-014 1.66979e-014
rhumerus -39.1001 9.67606 -89.4086
rradius 106.774
rwrist -12.2107
rhand -18.1105 32.156
rfingers 7.12502
rthumb 8.16368 2.33369
lclavicle -1.66979e-014 1.66979e-014
lhumerus -40.7723 -6.36092 95.3674
lradius 96.4454
lwrist 17.8856
lhand -17.9077 7.27906
lfingers 7.12502
lthumb 8.35939 37.0936
rfemur -24.2345 -1.1772 30.0815
rtibia 50.2776
rfoot -20.4863 -14.6969
rtoes -10.3384
lfemur -23.384 3.32369 -13.6217
ltibia 97.646
lfoot 14.935 -7.64018
ltoes 4.55657
26
root 0.139906 16.6523 -13.7884 6.86065 -0.938557 -0.617645
lowerback 13.8704 -1.18066 0.738885
upperback 0.624887 -1.16572 3.8299
thorax -7.06431 -0.527107 3.88934
lowerneck -21.9395 -2.61911 -8.97488
upperneck 9.95295 -1.68427 5.07975
head 6.69441 -0.709776 2.90479
rclavicle 2.74323e-014 3.18055e-015
rhumerus -37.7234 10.0939 -89.4526
rradius 108.567
rwrist -12.1535
rhand -17.8567 32.1643
rfingers 7.12502
rthumb 8.40861 2.35171
lclavicle 2.74323e-014 3.18055e-015
lhumerus -42.3665 -6.12336 95.8709
lradius 96.4305
lwrist 17.7415
lhand -17.3518 7.25533
lfingers 7.12502
lthumb 8.89583 37.0478
rfemur -21.6787 -1.59797 30.1088
rtibia 49.2231
rfoot -20.8813 -14.9728
rtoes -13.0881
lfemur -26.6729 4.03985 -13.5801
ltibia 98.7946
lfoot 12.3994 -6.2577
ltoes 1.85842
27
root 0.125022 16.6631 -13.2313 7.30747 -1.02795 -0.669693
lowerback 13.6863 -0.860309 0.732782
upperback 0.345762 -0.736506 3.84007
thorax -7.28604 -0.313324 3.82212
lowerneck -21.8069 -2.8266 -9.14487
upperneck 10.092 -1.9626 5.29693
head 6.7436 -0.834015 2.97182
rclavicle 1.94809e-014 -3.02153e-014
rhumerus -36.2211 10.6888 -89.5605
rradius 110.036
rwrist -12.5366
rhand -17.889 32.6135
rfingers 7.12502
rthumb 8.37749 2.79965
lclavicle 1.94809e-014 -3.02153e-014
lhumerus -44.1923 -6.04563 96.2919
lradius 96.9045
lwrist 18.1553
lhand -16.7249 7.12306
lfingers 7.12502
lthumb 9.50075 36.8889
rfemur -19.2569 -1.74031 30.0492
rtibia 48.0181
rfoot -21.1672 -14.9228
rtoes -15.6715
lfemur -30.1636 4.85851 -13.7119
ltibia 99.474
lfoot 10.389 -4.91439
ltoes -1.78427
28
root 0.113955 16.6907 -12.6681 7.64431 -1.28243 -1.13989
lowerback 13.5691 -0.525007 1.26332
upperback 0.14613 -0.204072 3.84225
thorax -7.46838 -0.0705078 3.41975
lowerneck -21.8831 -3.06826 -9.27474
upperneck 10.2356 -2.29708 5.62449
head 6.83402 -0.970592 3.06222
rclavicle -7.95139e-015 -1.98785e-014
rhumerus -34.9951 11.238 -89.7665
rradius 111.848
rwrist -12.9689
rhand -18.2399 33.6693
rfingers 7.12502
rthumb 8.03882 3.84219
lclavicle -7.95139e-015 -1.98785e-014
lhumerus -46.0552 -6.1839 96.5651
lradius 97.7707
lwrist 18.9867
lhand -16.433 6.95457
lfingers 7.12502
lthumb 9.78241 36.7074
rfemur -16.562 -1.51699 30.3456
rtibia 46.5494
rfoot -21.0022 -14.4232
rtoes -18.4563
lfemur -33.2704 5.91662 -13.4709
ltibia 99.6184
lfoot 8.68123 -3.975
ltoes -4.76406
29
root 0.104637 16.7495 -12.0845 7.76344 -1.73985 -1.6314
lowerback 13.4406 -0.0366926 1.93059
upperback 0.163548 0.531766 3.70424
thorax -7.40591 0.259686 2.74478
lowerneck -22.1118 -3.4225 -9.17057
upperneck 10.1354 -2.81481 5.84683
head 6.87978 -1.18969 3.05457
rclavicle -1.15295e-014 -3.4191e-014
rhumerus -34.0912 11.0999 -90.1473
rradius 114.499
rwrist -13.1435
rhand -18.1105 32.6023
rfingers 7.12502
rthumb 8.16369 2.77999
lclavicle -1.15295e-014 -3.4191e-014
lhumerus -47.7257 -6.81168 96.7717
lradius 98.782
lwrist 20.0067
lhand -16.2396 6.64938
lfingers 7.12502
lthumb 9.96898 36.3933
rfemur -13.4888 -1.21013 30.5757
rtibia 44.8095
rfoot -20.275 -13.6229
rtoes -21.1429
lfemur -35.848 7.02092 -13.4
ltibia 99.0041
lfoot 7.05589 -3.06207
ltoes -3.92622
30
root 0.0987428 16.8226 -11.4892 7.89106 -2.28909 -2.09633
lowerback 13.3208 0.494566 2.59523
upperback 0.11023 1.32494 3.55666
thorax -7.40354 0.617869 2.05519
lowerneck -22.0494 -3.78746 -9.33702
upperneck 10.0242 -3.33204 6.30462
head 6.8859 -1.40211 3.16895
rclavicle 4.77083e-015 4.77083e-015
rhumerus -33.4213 10.8665 -90.4716
rradius 117.082
rwrist -13.5425
rhand -17.9801 33.0816
rfingers 7.12502
rthumb 8.28952 3.26421
lclavicle 4.77083e-015 4.77083e-015
lhumerus -49.4919 -7.32664 96.9992
lradius 99.8025
lwrist 20.8762
lhand -15.8221 6.66497
lfingers 7.12502
lthumb 10.3718 36.3892
rfemur -10.3682 -0.786076 30.6913
rtibia 42.8419
rfoot -18.9726 -12.4681
rtoes -22.7654
lfemur -38.4137 8.016 -13.5654
ltibia 97.7637
lfoot 5.8494 -2.29054
ltoes -3.25488
31
root 0.0961238 16.9029 -10.8952 8.11885 -2.91623 -2.4849
lowerback 13.1559 1.00764 3.11119
upperback -0.0107161 2.07119 3.4147
thorax -7.43006 0.957993 1.46961
lowerneck -22.1693 -4.11506 -9.57827
upperneck 10.2428 -3.77858 6.80702
head 7.02961 -1.57903 3.32004
rclavicle -9.14409e-015 -1.59028e-014
rhumerus -32.8928 10.9491 -90.751
rradius 119.411
rwrist -14.1479
rhand -17.9986 33.9555
rfingers 7.12502
rthumb 8.27165 4.13745
lclavicle -9.14409e-015 -1.59028e-014
lhumerus -51.1681 -7.52878 97.0894
lradius 100.75
lwrist 21.6416
lhand -15.2522 7.1456
lfingers 7.12502
lthumb 10.9215 36.8416
rfemur -7.39247 -0.159443 30.6817
rtibia 40.6783
rfoot -17.0929 -10.9127
rtoes -22.8361
lfemur -40.8105 8.97328 -13.91
ltibia 96.0621
lfoot 4.41375 -1.75657
ltoes -6.93077
